HIERARCHY
ROOT Hips
{
	OFFSET 0.000000 0.000000 0.000000 
	CHANNELS 6 Xposition Yposition Zposition Zrotation Yrotation Xrotation
	JOINT LeftUpLeg
	{
		OFFSET 1.363060 -1.794630 0.839290 
		CHANNELS 3 Zrotation Yrotation Xrotation
		JOINT LeftLeg
		{
			OFFSET 2.448110 -6.726130 0.000000 
			CHANNELS 3 Zrotation Yrotation Xrotation
			JOINT LeftFoot
			{
				OFFSET 2.562200 -7.039590 0.000000 
				CHANNELS 3 Zrotation Yrotation Xrotation
				JOINT LeftToeBase
				{
					OFFSET 0.157640 -0.433110 2.322550 
					CHANNELS 3 Zrotation Yrotation Xrotation
					End Site
					{
						OFFSET 0.000000 0.000000 0.000000 
					}
				}
			}
		}
	}
	JOINT RightUpLeg
	{
		OFFSET -1.305520 -1.794630 0.839290 
		CHANNELS 3 Zrotation Yrotation Xrotation
		JOINT RightLeg
		{
			OFFSET -2.542530 -6.985550 0.000000 
			CHANNELS 3 Zrotation Yrotation Xrotation
			JOINT RightFoot
			{
				OFFSET -2.568260 -7.056230 0.000000 
				CHANNELS 3 Zrotation Yrotation Xrotation
				JOINT RightToeBase
				{
					OFFSET -0.164730 -0.452590 2.363150 
					CHANNELS 3 Zrotation Yrotation Xrotation
					End Site
					{
						OFFSET 0.000000 0.000000 0.000000 
					}
				}
			}
		}
	}
	JOINT Spine
	{
		OFFSET 0.028270 2.035590 -0.193380 
		CHANNELS 3 Zrotation Yrotation Xrotation
		JOINT Spine1
		{
			OFFSET 0.056720 2.048850 -0.042750 
			CHANNELS 3 Zrotation Yrotation Xrotation
			JOINT Neck1
			{
				OFFSET -0.054170 1.746240 0.172020 
				CHANNELS 3 Zrotation Yrotation Xrotation
				JOINT Head
				{
					OFFSET 0.104070 1.761360 -0.123970 
					CHANNELS 3 Zrotation Yrotation Xrotation
					End Site
					{
						OFFSET 0.000000 0.000000 0.000000 
					}
				}
			}
			JOINT LeftArm
			{
				OFFSET 3.362410 1.200890 -0.311210 
				CHANNELS 3 Zrotation Yrotation Xrotation
				JOINT LeftForeArm
				{
					OFFSET 4.983000 -0.000000 -0.000000 
					CHANNELS 3 Zrotation Yrotation Xrotation
					JOINT LeftHand
					{
						OFFSET 3.483560 -0.000000 -0.000000 
						CHANNELS 3 Zrotation Yrotation Xrotation
						JOINT LeftHandIndex1
						{
							OFFSET 0.715260 -0.000000 -0.000000 
							CHANNELS 3 Zrotation Yrotation Xrotation
							End Site
							{
								OFFSET 0.000000 0.000000 0.000000 
							}
						}
					}
				}
			}
			JOINT RightArm
			{
				OFFSET -3.136600 1.374050 -0.404650 
				CHANNELS 3 Zrotation Yrotation Xrotation
				JOINT RightForeArm
				{
					OFFSET -5.241900 -0.000000 -0.000000 
					CHANNELS 3 Zrotation Yrotation Xrotation
					JOINT RightHand
					{
						OFFSET -3.444170 -0.000000 -0.000000 
						CHANNELS 3 Zrotation Yrotation Xrotation
						JOINT RightHandIndex1
						{
							OFFSET -0.622530 -0.000000 -0.000000 
							CHANNELS 3 Zrotation Yrotation Xrotation
							End Site
							{
								OFFSET 0.000000 0.000000 0.000000 
							}
						}
					}
				}
			}
		}
	}
}
MOTION
Frames: 6
Frame Time: 0.041667
5.442241 23.205674 11.605128 -6.879937 22.394960 16.411338 -14.314290 15.968777 -29.207498 -0.181768 9.819949 24.256210 -7.827004 21.129925 0.684306 0.353100 -3.817800 -10.564700 26.648176 -9.295084 -33.806409 0.949634 -11.186940 25.310143 0.867762 -7.663320 9.645333 -0.438300 4.248300 -11.776400 0.623897 0.983010 -4.730048 2.716235 0.679701 -15.491400 11.216793 -29.600751 4.368278 22.120600 -14.410800 4.974000 -66.374193 12.178021 29.062897 16.597118 -24.269288 -5.420695 -1.143766 -0.344578 -39.845066 -7.125000 0.000000 0.000000 78.373481 -9.503938 3.601691 -6.309060 14.568062 -1.609234 0.324942 0.105673 36.538320 7.125000 0.000000 0.000000 
5.447047 23.199190 11.632626 -6.828509 21.795827 16.518431 -14.463193 16.221890 -29.271411 -0.163759 9.830542 24.294960 -7.949997 21.378331 0.402894 0.356300 -3.834900 -10.612700 26.600065 -9.181366 -33.611081 1.011400 -11.104094 25.083954 0.730955 -7.349833 9.780539 -0.417300 4.146200 -11.488500 0.633405 0.861562 -4.733459 2.687939 0.602499 -15.407615 11.066543 -29.353715 4.589873 21.992600 -14.367200 5.049300 -66.466480 11.959637 29.220686 16.833233 -24.477020 -5.521885 -1.097511 -0.341203 -39.879800 -7.125000 0.000000 0.000000 78.319841 -9.748215 3.397668 -6.191787 14.447928 -1.579669 0.317633 0.122188 36.974358 7.125000 0.000000 0.000000 
5.452748 23.193601 11.661913 -6.771418 21.216349 16.616951 -14.618426 16.481601 -29.318943 -0.148719 9.835415 24.316143 -8.069463 21.623908 0.143803 0.364100 -3.876300 -10.728900 26.567228 -9.147331 -33.464147 1.065411 -11.033496 24.910085 0.543672 -6.906303 9.947739 -0.388700 4.003700 -11.087200 0.643155 0.742578 -4.735279 2.657657 0.525483 -15.317441 10.911112 -29.106612 4.812584 21.859500 -14.322500 5.121500 -66.575479 11.729771 29.360800 17.067691 -24.680413 -5.623339 -1.053355 -0.337737 -39.893997 -7.125000 0.000000 0.000000 78.248383 -9.999673 3.251818 -6.090919 14.353910 -1.555680 0.310086 0.140899 37.348832 7.125000 0.000000 0.000000 
5.458449 23.188683 11.692205 -6.699168 20.648265 16.707782 -14.782231 16.735012 -29.343415 -0.138479 9.833856 24.313019 -8.194062 21.886772 -0.096515 0.375900 -3.938000 -10.902300 26.532567 -9.166193 -33.360089 1.110584 -10.978394 24.794123 0.315051 -6.357290 10.160967 -0.351900 3.811200 -10.546200 0.653854 0.624712 -4.735968 2.637526 0.451436 -15.228431 10.753072 -28.863094 5.032881 21.719100 -14.276700 5.192200 -66.711244 11.475055 29.451445 17.288756 -24.865340 -5.718974 -1.011739 -0.332648 -39.862782 -7.125000 0.000000 0.000000 78.147983 -10.242487 3.173209 -6.001744 14.277800 -1.535615 0.302363 0.160627 37.647687 7.125000 0.000000 0.000000 
5.465044 23.184882 11.724174 -6.621489 20.101179 16.785761 -14.944066 16.974020 -29.334274 -0.133029 9.826237 24.288957 -8.318951 22.154449 -0.329357 0.389400 -4.007100 -11.096700 26.502486 -9.246966 -33.295665 1.146267 -10.939238 24.736868 0.049881 -5.709993 10.404843 -0.312100 3.591400 -9.929700 0.665609 0.506775 -4.733801 2.618052 0.376717 -15.128302 10.593076 -28.622156 5.248577 21.573900 -14.227600 5.258800 -66.874832 11.188226 29.479824 17.484273 -25.019376 -5.802591 -0.971606 -0.323334 -39.755469 -7.125000 0.000000 0.000000 78.030381 -10.481260 3.150576 -5.927360 14.224366 -1.520236 0.294610 0.181426 37.879663 7.125000 0.000000 0.000000 
5.470856 23.181305 11.756143 -6.535871 19.555365 16.853970 -15.097501 17.176107 -29.293178 -0.131962 9.816494 24.253113 -8.452705 22.443734 -0.579547 0.401100 -4.066300 -11.263300 26.445126 -9.291748 -33.230302 1.173389 -10.917361 24.726037 -0.207670 -5.074500 10.647285 -0.276400 3.381800 -9.343500 0.678476 0.395881 -4.733870 2.611953 0.309027 -15.052427 10.432643 -28.379100 5.460482 21.426600 -14.176000 5.318500 -67.068626 10.884101 29.448386 17.653528 -25.142024 -5.873589 -0.932701 -0.309021 -39.562461 -7.125000 0.000000 0.000000 77.892631 -10.728351 3.187166 -5.867869 14.191959 -1.509342 0.286794 0.203480 38.022462 7.125000 0.000000 0.000000 
